<?xml version="1.0" encoding="UTF-8"?>
<svg width="24px" height="24px" viewBox="0 0 24 24" version="1.1" xmlns="http://www.w3.org/2000/svg" xmlns:xlink="http://www.w3.org/1999/xlink">
    <!-- Generator: sketchtool 52.5 (67469) - http://www.bohemiancoding.com/sketch -->
    <title>758F118A-6682-45C5-A61D-C0A0D054F2FC</title>
    <desc>Created with sketchtool.</desc>
    <g id="Symbols" stroke="none" stroke-width="1" fill="none" fill-rule="evenodd">
        <g id="00-Icon/ç¾Žé£Ÿ/æ”¶è—ç‚¹èµž">
            <rect id="24" x="0" y="0" width="24" height="24"></rect>
            <g id="æœªåŠ ðŸ—" transform="translate(2.000000, 2.000000)" fill="#FFFFFF">
                <path d="M14.9795881,2.85102929 C14.7604428,2.5541127 14.6308725,2.18701353 14.6308725,1.78954903 C14.6308725,0.801717967 15.4326622,0 16.4205817,0 C17.409396,0 18.2102908,0.801717967 18.2102908,1.78954903 C18.2102908,1.80447488 18.2101083,1.8193579 18.2097454,1.834196 C19.2313148,2.04133057 20,2.94461381 20,4.02648533 C20,5.26216893 18.9986577,6.26342162 17.7628635,6.26342162 C17.2420725,6.26342162 16.7629193,6.08560251 16.3828005,5.78735566 L15.1419192,7.02793401 L12.1691275,10 L10,7.8301718 L12.9562344,4.87420193 L14.9795881,2.85102929 Z" id="Combined-Shape" stroke-opacity="0.8" stroke="#373525" stroke-width="1.8"></path>
                <rect id="Rectangle" transform="translate(13.000000, 8.000000) rotate(44.000000) translate(-13.000000, -8.000000) " x="9" y="6" width="8" height="4"></rect>
                <path d="M9.69705608,6.16763378 C8.82678524,6.53136557 7.94281061,6.91159607 7.09151754,7.2942264 C4.64312299,8.39470523 2.46506664,9.51503511 1.66088773,10.3197936 C-0.553629245,12.5334004 -0.553629245,16.1239234 1.66088773,18.3391772 C3.87540471,20.5536076 7.46606817,20.5536076 9.68058515,18.3391772 C10.189625,17.8301573 10.8249212,16.77169 11.5015914,15.4430159 C11.8941396,14.6722287 12.3006118,13.8105071 12.7044362,12.9123674 C13.0877006,12.0599548 13.4685801,11.174738 13.8329074,10.3033233 C14.1722087,9.4929851 13.98444,8.5574727 13.3634858,7.93571929 L12.0647527,6.63703702 C11.442975,6.01528361 10.507426,5.82752232 9.69705608,6.16763378 Z" id="Fill-11" stroke-opacity="0.8" stroke="#373525" stroke-width="1.8"></path>
            </g>
        </g>
    </g>
</svg>