<?xml version="1.0" encoding="UTF-8"?>
<svg width="24px" height="24px" viewBox="0 0 24 24" version="1.1" xmlns="http://www.w3.org/2000/svg" xmlns:xlink="http://www.w3.org/1999/xlink">
    <!-- Generator: sketchtool 52.5 (67469) - http://www.bohemiancoding.com/sketch -->
    <title>63787635-2EE4-45AA-B3C6-80296B608281</title>
    <desc>Created with sketchtool.</desc>
    <defs>
        <linearGradient x1="68.1842142%" y1="0%" x2="21.4315576%" y2="77.4976093%" id="linearGradient-1">
            <stop stop-color="#FDE6C4" offset="0%"></stop>
            <stop stop-color="#F7D89A" offset="33.9668517%"></stop>
            <stop stop-color="#FFD371" offset="100%"></stop>
        </linearGradient>
        <linearGradient x1="2.32342847%" y1="2.32342847%" x2="98.6791004%" y2="98.6791004%" id="linearGradient-2">
            <stop stop-color="#FFBC3B" offset="0%"></stop>
            <stop stop-color="#FE2E2E" offset="100%"></stop>
        </linearGradient>
        <linearGradient x1="0%" y1="50%" x2="100%" y2="50%" id="linearGradient-3">
            <stop stop-color="#FFAA61" offset="0%"></stop>
            <stop stop-color="#FCC781" offset="100%"></stop>
        </linearGradient>
        <linearGradient x1="0%" y1="50%" x2="100%" y2="50%" id="linearGradient-4">
            <stop stop-color="#FFAA61" offset="0%"></stop>
            <stop stop-color="#FDB95F" offset="100%"></stop>
        </linearGradient>
    </defs>
    <g id="Symbols" stroke="none" stroke-width="1" fill="none" fill-rule="evenodd">
        <g id="00-Icon/ç¾Žé£Ÿ/å·²æ”¶è—ç‚¹èµž">
            <rect id="24" x="0" y="0" width="24" height="24"></rect>
            <g id="å·²åŠ ðŸ—" transform="translate(1.000000, 1.000000)">
                <path d="M15.9755057,3.42123514 C15.7125313,3.06493524 15.557047,2.62441623 15.557047,2.14745884 C15.557047,0.96206156 16.5191946,0 17.704698,0 C18.8912752,0 19.852349,0.96206156 19.852349,2.14745884 C19.852349,2.16536986 19.85213,2.18322949 19.8516945,2.2010352 C21.0775777,2.44959668 22,3.53353657 22,4.83178239 C22,6.31460272 20.7983893,7.51610594 19.3154362,7.51610594 C18.690487,7.51610594 18.1155032,7.30272301 17.6593606,6.94482679 L12.602953,12 L10,9.39620616 L15.9755057,3.42123514 Z" id="Combined-Shape" fill="url(#linearGradient-1)"></path>
                <path d="M13.7882888,6.72804231 C13.0776857,6.01746699 12.0084869,5.80288265 11.0823498,6.19158147 C7.22721022,7.8028463 3.13677159,9.6974001 1.89815741,10.936907 C-0.632719137,13.4667433 -0.632719137,17.5701982 1.89815741,20.1019169 C4.42903396,22.6326944 8.53264934,22.6326944 11.0635259,20.1019169 C12.3030813,18.86241 14.1977092,14.7721314 15.8090371,10.9180838 C16.1968099,9.99198298 15.9822172,8.92282594 15.2725552,8.21225062 L13.7882888,6.72804231" id="Fill-11" fill="url(#linearGradient-2)"></path>
            </g>
            <path d="M5.69369553,9.95316793 L6.16751409,10.0090729 C6.71599429,10.073787 7.10816417,10.5708792 7.04345004,11.1193594 C7.04236429,11.1285616 7.04115069,11.1377482 7.0398096,11.1469167 L6.5483403,14.5068694 C6.48456211,14.9428921 6.14005522,15.2841483 5.70344757,15.34379 L5.70344757,15.34379 C5.31558202,15.3967735 4.95820329,15.1252979 4.90521985,14.7374323 C4.90366895,14.726079 4.9023936,14.7146898 4.9013949,14.7032746 L4.58032553,11.0334349 C4.53219074,10.4832518 4.93918134,9.99821926 5.48936448,9.95008447 C5.55740142,9.94413201 5.62586918,9.94516522 5.69369553,9.95316793 Z" id="Rectangle" fill="url(#linearGradient-3)" transform="translate(5.813448, 12.648338) rotate(-130.000000) translate(-5.813448, -12.648338) "></path>
            <path d="M10.0835221,7.95909135 L10.0835221,7.95909135 C10.3913353,8.00897029 10.6064619,8.29077088 10.5734373,8.60084548 L10.3620897,10.58523 C10.3430316,10.7641711 10.2088645,10.9094297 10.0319971,10.9426114 L10.0319971,10.9426114 C9.88634661,10.9699366 9.74612215,10.8740149 9.71879699,10.7283645 C9.71678704,10.7176509 9.71543181,10.7068248 9.71473882,10.6959464 L9.57007213,8.42499108 C9.55450322,8.18059282 9.74000606,7.9698478 9.98440431,7.9542789 C10.0175196,7.95216936 10.050767,7.95378361 10.0835221,7.95909135 Z" id="Rectangle" fill="url(#linearGradient-4)" transform="translate(10.076460, 9.446279) rotate(-130.000000) translate(-10.076460, -9.446279) "></path>
        </g>
    </g>
</svg>