<?xml version="1.0" encoding="UTF-8"?>
<svg width="24px" height="24px" viewBox="0 0 24 24" version="1.1" xmlns="http://www.w3.org/2000/svg" xmlns:xlink="http://www.w3.org/1999/xlink">
    <!-- Generator: sketchtool 52.5 (67469) - http://www.bohemiancoding.com/sketch -->
    <title>DAA67454-E1BD-4972-87E0-00B7EF525113</title>
    <desc>Created with sketchtool.</desc>
    <g id="Symbols" stroke="none" stroke-width="1" fill="none" fill-rule="evenodd">
        <g id="00-Icon/Tabbar/转发/未选中">
            <rect id="24" x="-1.13686838e-13" y="0" width="24" height="24"></rect>
            <path d="M7,4.75 C5.20507456,4.75 3.75,6.20507456 3.75,8 L3.75,19 C3.75,20.7949254 5.20507456,22.25 7,22.25 L17,22.25 C18.7949254,22.25 20.25,20.7949254 20.25,19 L20.25,5 C20.25,4.86192881 20.1380712,4.75 20,4.75 L7,4.75 Z" id="Rectangle" stroke="#373525" stroke-width="1.5"></path>
            <rect id="Rectangle" fill="#FFFFFF" x="10" y="0" width="14" height="14"></rect>
            <rect id="Rectangle" fill="#373525" x="13" y="4" width="7" height="1.5"></rect>
            <rect id="Rectangle" fill="#373525" x="19.2" y="4" width="1.5" height="7"></rect>
            <rect id="Rectangle" stroke="#373525" fill="#D8D8D8" transform="translate(14.187184, 10.687184) rotate(45.000000) translate(-14.187184, -10.687184) " x="13.9371843" y="3.18718434" width="1" height="15"></rect>
        </g>
    </g>
</svg>