<?xml version="1.0" encoding="UTF-8"?>
<svg width="24px" height="24px" viewBox="0 0 24 24" version="1.1" xmlns="http://www.w3.org/2000/svg" xmlns:xlink="http://www.w3.org/1999/xlink">
    <!-- Generator: sketchtool 52.5 (67469) - http://www.bohemiancoding.com/sketch -->
    <title>5737A47C-934E-4944-BB19-1707FD4282E6</title>
    <desc>Created with sketchtool.</desc>
    <g id="Symbols" stroke="none" stroke-width="1" fill="none" fill-rule="evenodd">
        <g id="00-Icon/Tabbar/收藏/未选中">
            <rect id="24" x="-1.13686838e-13" y="0" width="24" height="24"></rect>
            <path d="M11.3025123,18.8695957 L8.22245496,20.4873266 C7.48903601,20.8725385 6.5822066,20.5902608 6.19699478,19.8568419 C6.04378989,19.5651494 5.99088623,19.2311289 6.04645482,18.90637 L6.76609252,14.7005996 L3.7118036,11.7210523 C3.11880646,11.1425665 3.10704276,10.1928919 3.68552864,9.59989473 C3.9156017,9.36405031 4.21692599,9.21051792 4.54296169,9.16301077 L8.76526728,8.54777237 L10.655158,4.72224024 C11.0220845,3.97950449 11.9216436,3.67485095 12.6643793,4.04177752 C12.9597772,4.18771007 13.1989095,4.42684238 13.344842,4.72224024 L15.2347327,8.54777237 L19.4570383,9.16301077 C20.2768085,9.2824607 20.8445303,10.0438491 20.7250804,10.8636193 C20.6775732,11.189655 20.5240408,11.4909793 20.2881964,11.7210523 L17.2339075,14.7005996 L17.9535452,18.90637 C18.0932645,19.7229299 17.5445768,20.4981473 16.7280169,20.6378666 C16.403258,20.6934352 16.0692375,20.6405315 15.777545,20.4873266 L12.6974877,18.8695957 C12.2607817,18.6402257 11.7392183,18.6402257 11.3025123,18.8695957 Z" id="Star" stroke="#373525" stroke-width="1.5"></path>
        </g>
    </g>
</svg>