<?xml version="1.0" encoding="UTF-8"?>
<svg width="14px" height="14px" viewBox="0 0 14 14" version="1.1" xmlns="http://www.w3.org/2000/svg" xmlns:xlink="http://www.w3.org/1999/xlink">
    <!-- Generator: sketchtool 52.5 (67469) - http://www.bohemiancoding.com/sketch -->
    <title>EE9E4719-4DAF-4208-A405-493984C996A8</title>
    <desc>Created with sketchtool.</desc>
    <defs>
        <rect id="path-1" x="0" y="0" width="7" height="14"></rect>
        <linearGradient x1="0%" y1="0%" x2="100%" y2="100%" id="linearGradient-3">
            <stop stop-color="#FEE463" offset="0%"></stop>
            <stop stop-color="#FEC62E" offset="100%"></stop>
        </linearGradient>
    </defs>
    <g id="Symbols" stroke="none" stroke-width="1" fill="none" fill-rule="evenodd">
        <g id="00-Icon/评分/半星/Dark">
            <rect id="14" x="0" y="0" width="14" height="14"></rect>
            <path d="M11.9713428,6.26339286 C11.9341946,6.43452467 11.8524699,6.5870529 11.7261662,6.72098214 L10.0433628,8.43973214 L10.4445609,10.8727679 C10.4891387,11.1703884 10.4148435,11.4326626 10.2216731,11.6595982 C10.0285026,11.8865339 9.78332842,12 9.48614312,12 C9.3226912,12 9.16667126,11.9590778 9.0180786,11.8772321 L7.00094343,10.7611607 L4.98380827,11.8772321 C4.83521561,11.9590778 4.67919567,12 4.51574375,12 C4.21855845,12 3.97338425,11.8865339 3.7802138,11.6595982 C3.58704335,11.4326626 3.51274814,11.1703884 3.55732594,10.8727679 L3.95852409,8.43973214 L2.27572072,6.72098214 C2.14941696,6.5870529 2.06583485,6.43266456 2.02497187,6.2578125 C1.98410889,6.08296044 1.99339579,5.90811099 2.05283285,5.73325893 C2.11226992,5.55840686 2.21071107,5.41331903 2.34815927,5.29799107 C2.48560748,5.18266311 2.6434848,5.1101192 2.82179599,5.08035714 L5.10639659,4.734375 L6.13168077,2.55803571 C6.21340672,2.37946339 6.33599382,2.24181596 6.49944574,2.14508929 C6.65546803,2.04836261 6.82263225,2 7.00094343,2 C7.17925462,2 7.34641884,2.04836261 7.50244113,2.14508929 C7.66589305,2.24181596 7.78848015,2.37946339 7.8702061,2.55803571 L8.89549028,4.734375 L11.1800909,5.08035714 C11.3584021,5.1101192 11.5162794,5.18266311 11.6537276,5.29799107 C11.7911758,5.41331903 11.889617,5.55840686 11.949054,5.73325893 C12.0084911,5.90811099 12.0159206,6.08482054 11.9713428,6.26339286 Z" id="Star" fill="#000000" opacity="0.05"></path>
            <g id="Half">
                <mask id="mask-2" fill="white">
                    <use xlink:href="#path-1"></use>
                </mask>
                <g id="Mask"></g>
                <path d="M11.9713428,6.26339286 C11.9341946,6.43452467 11.8524699,6.5870529 11.7261662,6.72098214 L10.0433628,8.43973214 L10.4445609,10.8727679 C10.4891387,11.1703884 10.4148435,11.4326626 10.2216731,11.6595982 C10.0285026,11.8865339 9.78332842,12 9.48614312,12 C9.3226912,12 9.16667126,11.9590778 9.0180786,11.8772321 L7.00094343,10.7611607 L4.98380827,11.8772321 C4.83521561,11.9590778 4.67919567,12 4.51574375,12 C4.21855845,12 3.97338425,11.8865339 3.7802138,11.6595982 C3.58704335,11.4326626 3.51274814,11.1703884 3.55732594,10.8727679 L3.95852409,8.43973214 L2.27572072,6.72098214 C2.14941696,6.5870529 2.06583485,6.43266456 2.02497187,6.2578125 C1.98410889,6.08296044 1.99339579,5.90811099 2.05283285,5.73325893 C2.11226992,5.55840686 2.21071107,5.41331903 2.34815927,5.29799107 C2.48560748,5.18266311 2.6434848,5.1101192 2.82179599,5.08035714 L5.10639659,4.734375 L6.13168077,2.55803571 C6.21340672,2.37946339 6.33599382,2.24181596 6.49944574,2.14508929 C6.65546803,2.04836261 6.82263225,2 7.00094343,2 C7.17925462,2 7.34641884,2.04836261 7.50244113,2.14508929 C7.66589305,2.24181596 7.78848015,2.37946339 7.8702061,2.55803571 L8.89549028,4.734375 L11.1800909,5.08035714 C11.3584021,5.1101192 11.5162794,5.18266311 11.6537276,5.29799107 C11.7911758,5.41331903 11.889617,5.55840686 11.949054,5.73325893 C12.0084911,5.90811099 12.0159206,6.08482054 11.9713428,6.26339286 Z" id="Star" fill="url(#linearGradient-3)" mask="url(#mask-2)"></path>
            </g>
        </g>
    </g>
</svg>